<!DOCTYPE svg PUBLIC "-//W3C//DTD SVG 1.1//EN" "http://www.w3.org/Graphics/SVG/1.1/DTD/svg11.dtd">
<!-- Uploaded to: SVG Repo, www.svgrepo.com, Transformed by: SVG Repo Mixer Tools -->
<svg fill="#ffffff" height="800px" width="800px" version="1.1" id="Layer_1" xmlns="http://www.w3.org/2000/svg" xmlns:xlink="http://www.w3.org/1999/xlink" viewBox="-117.76 -117.76 747.52 747.52" xml:space="preserve" transform="rotate(180)" stroke="#ffffff">
<g id="SVGRepo_bgCarrier" stroke-width="0">
<rect x="-117.76" y="-117.76" width="747.52" height="747.52" rx="373.76" fill="#2ec27e" strokewidth="0"/>
</g>
<g id="SVGRepo_tracerCarrier" stroke-linecap="round" stroke-linejoin="round"/>
<g id="SVGRepo_iconCarrier"> <g> <g> <path d="M380.631,387.761l-60.735-80.093c37.838-46.701,14.146-117.093-44.208-131.49v-51.485 c25.629-8.323,44.214-32.42,44.214-60.788C319.902,28.668,291.234,0,255.995,0c-35.239,0-63.908,28.668-63.908,63.907 c0,28.367,18.586,52.464,44.216,60.788v51.486c-58.306,14.392-82.063,84.757-44.2,131.488l-60.735,80.093 c-41.544-14.529-84.943,16.54-84.943,60.332C46.423,483.332,75.093,512,110.331,512c35.239,0,63.907-28.668,63.907-63.907 c0-13.569-4.264-26.155-11.504-36.513l60.73-80.085c20.731,8.969,44.325,8.976,65.071,0l60.73,80.085 c-7.24,10.359-11.504,22.944-11.504,36.513c0,35.239,28.668,63.907,63.907,63.907s63.908-28.668,63.908-63.907 C465.575,404.252,422.138,373.245,380.631,387.761z M110.331,472.615c-13.522,0-24.523-11-24.523-24.522 c0-13.521,11.001-24.522,24.523-24.522c13.522,0,24.522,11,24.522,24.522S123.853,472.615,110.331,472.615z M231.472,63.907 c0-13.522,11.001-24.522,24.523-24.522c13.522,0,24.522,11,24.522,24.522c0,13.521-11,24.522-24.522,24.522 C242.473,88.429,231.472,77.429,231.472,63.907z M255.999,298.836c-23.62,0-42.837-19.216-42.837-42.836 c0-23.62,19.217-42.836,42.837-42.836c23.62,0,42.837,19.217,42.837,42.836S279.62,298.836,255.999,298.836z M401.667,472.615 c-13.522,0-24.522-11-24.522-24.522c0-13.521,11-24.522,24.522-24.522s24.523,11,24.523,24.522S415.189,472.615,401.667,472.615z"/> </g> </g> </g>
</svg>